{"asset":{"version":"2.0","generator":"THREE.GLTFExporter"},"scenes":[{"name":"DetectorChamber > Chamber","nodes":[4],"extras":{"visible":true}}],"scene":0,"nodes":[{"name":"logicDCDownBPipePipe_pv0x2234d00","mesh":0},{"children":[0]},{"matrix":[1,0,0,0,0,1,0,0,0,0,1,0,0,-1.6,1391.563,1],"children":[1]},{"children":[2]},{"children":[3]}],"bufferViews":[{"buffer":0,"byteOffset":0,"byteLength":6912,"target":34962,"byteStride":12},{"buffer":0,"byteOffset":6912,"byteLength":6912,"target":34962,"byteStride":12}],"buffers":[{"byteLength":13824,"uri":"data:application/octet-stream;base64,"}],"accessors":[{"bufferView":0,"componentType":5126,"count":576,"max":[7.644999980926514,7.644999980926514,13.805000305175781],"min":[-7.644999980926514,-7.644999980926514,-13.805000305175781],"type":"VEC3"},{"bufferView":1,"componentType":5126,"count":576,"max":[1,1,1],"min":[-1,-1,-1],"type":"VEC3"}],"materials":[{"pbrMetallicRoughness":{"baseColorFactor":[0.3231432091022285,0.3231432091022285,0.6104955708001716,1],"metallicFactor":0.5,"roughnessFactor":0.5}}],"meshes":[{"primitives":[{"mode":4,"attributes":{"POSITION":0,"NORMAL":1},"material":0}]}]}