{"asset":{"version":"2.0","generator":"THREE.GLTFExporter"},"scenes":[{"name":"DetectorChamber > Chamber","nodes":[10],"extras":{"visible":true}}],"scene":0,"nodes":[{"name":"logicDetChamberSupport_pv0x21faa08","mesh":0},{"matrix":[1,0,0,0,0,2.220446049250313e-16,1,0,0,-1,2.220446049250313e-16,0,29.005000000000003,-1.75,67.115,1],"children":[0]},{"name":"logicDetChamberSupport_pv0x21faa40","mesh":0},{"matrix":[1,0,0,0,0,2.220446049250313e-16,1,0,0,-1,2.220446049250313e-16,0,29.005000000000003,-1.75,-67.115,1],"children":[2]},{"name":"logicDetChamberSupport_pv0x21faa78","mesh":0},{"matrix":[1,0,0,0,0,2.220446049250313e-16,1,0,0,-1,2.220446049250313e-16,0,-29.005000000000003,-1.75,-67.115,1],"children":[4]},{"name":"logicDetChamberSupport_pv0x21faab0","mesh":0},{"matrix":[1,0,0,0,0,2.220446049250313e-16,1,0,0,-1,2.220446049250313e-16,0,-29.005000000000003,-1.75,67.115,1],"children":[6]},{"matrix":[1,0,0,0,0,1,0,0,0,0,1,0,0,-34.763,1580.146,1],"children":[1,3,5,7]},{"children":[8]},{"children":[9]}],"bufferViews":[{"buffer":0,"byteOffset":0,"byteLength":3456,"target":34962,"byteStride":12},{"buffer":0,"byteOffset":3456,"byteLength":3456,"target":34962,"byteStride":12}],"buffers":[{"byteLength":6912,"uri":"data:application/octet-stream;base64,"}],"accessors":[{"bufferView":0,"componentType":5126,"count":288,"max":[0.699999988079071,0.699999988079071,1.75],"min":[-0.699999988079071,-0.699999988079071,-1.75],"type":"VEC3"},{"bufferView":1,"componentType":5126,"count":288,"max":[1,1,1],"min":[-1,-1,-1],"type":"VEC3"}],"materials":[{"pbrMetallicRoughness":{"baseColorFactor":[0.3231432091022285,0.3231432091022285,0.6104955708001716,1],"metallicFactor":0.5,"roughnessFactor":0.5}}],"meshes":[{"primitives":[{"mode":4,"attributes":{"POSITION":0,"NORMAL":1},"material":0}]}]}