{"asset":{"version":"2.0","generator":"THREE.GLTFExporter"},"scenes":[{"name":"DetectorChamber > Chamber","nodes":[5],"extras":{"visible":true}}],"scene":0,"nodes":[{"name":"DipoleChamberUstrMag0x224c180","mesh":0},{"matrix":[1,0,0,0,0,1,0,0,0,0,1,0,0,-1.6,1246.0118000000002,1],"children":[0]},{"name":"DipoleChamberUstrMagVac0x224c3b0","mesh":1},{"matrix":[1,0,0,0,0,1,0,0,0,0,1,0,0,-1.6,1246.0118000000002,1],"children":[2]},{"children":[1,3]},{"children":[4]}],"bufferViews":[{"buffer":0,"byteOffset":0,"byteLength":1152,"target":34962,"byteStride":12},{"buffer":0,"byteOffset":1152,"byteLength":1152,"target":34962,"byteStride":12},{"buffer":0,"byteOffset":2304,"byteLength":432,"target":34962,"byteStride":12},{"buffer":0,"byteOffset":2736,"byteLength":432,"target":34962,"byteStride":12}],"buffers":[{"byteLength":3168,"uri":"data:application/octet-stream;base64,"}],"accessors":[{"bufferView":0,"componentType":5126,"count":96,"max":[2.5527000427246094,5.092700004577637,14.32919979095459],"min":[-2.5527000427246094,-5.092700004577637,-14.32919979095459],"type":"VEC3"},{"bufferView":1,"componentType":5126,"count":96,"max":[1,1,1],"min":[-1,-1,-1],"type":"VEC3"},{"bufferView":2,"componentType":5126,"count":36,"max":[2.2351999282836914,4.775199890136719,14.32919979095459],"min":[-2.2351999282836914,-4.775199890136719,-14.32919979095459],"type":"VEC3"},{"bufferView":3,"componentType":5126,"count":36,"max":[1,1,1],"min":[-1,-1,-1],"type":"VEC3"}],"materials":[{"pbrMetallicRoughness":{"baseColorFactor":[0.3231432091022285,0.3231432091022285,0.6104955708001716,1],"metallicFactor":0.5,"roughnessFactor":0.5}},{"pbrMetallicRoughness":{"baseColorFactor":[0.13286832154414627,0.13286832154414627,1,0.4],"metallicFactor":0.5,"roughnessFactor":0.5},"alphaMode":"BLEND"}],"meshes":[{"primitives":[{"mode":4,"attributes":{"POSITION":0,"NORMAL":1},"material":0}]},{"primitives":[{"mode":4,"attributes":{"POSITION":2,"NORMAL":3},"material":1}]}]}