{"asset":{"version":"2.0","generator":"THREE.GLTFExporter"},"scenes":[{"name":"DetectorChamber > Chamber","nodes":[3],"extras":{"visible":true}}],"scene":0,"nodes":[{"name":"DplCDwnstrMagFlangeD0x224b7f0","mesh":0},{"matrix":[1,0,0,0,0,1,0,0,0,0,1,0,0,-1.6,1376.996,1],"children":[0]},{"children":[1]},{"children":[2]}],"bufferViews":[{"buffer":0,"byteOffset":0,"byteLength":4032,"target":34962,"byteStride":12},{"buffer":0,"byteOffset":4032,"byteLength":4032,"target":34962,"byteStride":12}],"buffers":[{"byteLength":8064,"uri":"data:application/octet-stream;base64,"}],"accessors":[{"bufferView":0,"componentType":5126,"count":336,"max":[10.121899604797363,10.121899604797363,0.7620000243186951],"min":[-10.121899604797363,-10.121899604797363,-0.7620000243186951],"type":"VEC3"},{"bufferView":1,"componentType":5126,"count":336,"max":[1,1,1],"min":[-1,-1,-1],"type":"VEC3"}],"materials":[{"pbrMetallicRoughness":{"baseColorFactor":[0.3231432091022285,0.3231432091022285,0.6104955708001716,1],"metallicFactor":0.5,"roughnessFactor":0.5}}],"meshes":[{"primitives":[{"mode":4,"attributes":{"POSITION":0,"NORMAL":1},"material":0}]}]}