{"asset":{"version":"2.0","generator":"THREE.GLTFExporter"},"scenes":[{"name":"DetectorChamber > Chamber","nodes":[23],"extras":{"visible":true}}],"scene":0,"nodes":[{"name":"logicDumpCoreContainer_pv0x22134f0","mesh":0},{"name":"DumpCore0x220f2c0","mesh":1},{"matrix":[1,0,0,0,0,1,0,0,0,0,1,0,-5.016500000000001,3.7973,17.6276,1],"children":[1]},{"name":"DumpCorePlate0x220f730","mesh":2},{"matrix":[1,0,0,0,0,1,0,0,0,0,1,0,-26.162000000000003,0,0,1],"children":[3]},{"name":"DumpCorePlate0x220f820","mesh":2},{"matrix":[1,0,0,0,0,1,0,0,0,0,1,0,16.129,0,0,1],"children":[5]},{"name":"logicDumpCoreSupportTop_pv0x2210220","mesh":3},{"matrix":[1,0,0,0,0,1,0,0,0,0,1,0,0,-1.4859,0,1],"children":[7]},{"name":"logicDumpCoreSupportLeg_pv0x2210258","mesh":4},{"matrix":[1,0,0,0,0,2.220446049250313e-16,-1,0,0,1,2.220446049250313e-16,0,-7.4803,-5.283200000000001,-18.5928,1],"children":[9]},{"name":"logicDumpCoreSupportLeg_pv0x2210290","mesh":4},{"matrix":[1,0,0,0,0,2.220446049250313e-16,-1,0,0,1,2.220446049250313e-16,0,-7.4803,-5.283200000000001,18.5928,1],"children":[11]},{"name":"logicDumpCoreSupportLeg_pv0x22102c8","mesh":4},{"matrix":[1,0,0,0,0,2.220446049250313e-16,-1,0,0,1,2.220446049250313e-16,0,7.4803,-5.283200000000001,-18.5928,1],"children":[13]},{"name":"logicDumpCoreSupportLeg_pv0x2210300","mesh":4},{"matrix":[1,0,0,0,0,2.220446049250313e-16,-1,0,0,1,2.220446049250313e-16,0,7.4803,-5.283200000000001,18.5928,1],"children":[15]},{"matrix":[1,0,0,0,0,1,0,0,0,0,1,0,-5.016500000000001,-25.3111,17.6276,1],"children":[8,10,12,14,16]},{"name":"DumpLead0x22115c0","mesh":5},{"children":[18]},{"matrix":[1,0,0,0,0,1,0,0,0,0,1,0,5.016500000000001,32.9057,0,1],"children":[0,2,4,6,17,19]},{"matrix":[1,0,0,0,0,1,0,0,0,0,1,0,0,-44.410000000000004,2639,1],"children":[20]},{"children":[21]},{"children":[22]}],"bufferViews":[{"buffer":0,"byteOffset":0,"byteLength":432,"target":34962,"byteStride":12},{"buffer":0,"byteOffset":432,"byteLength":432,"target":34962,"byteStride":12},{"buffer":0,"byteOffset":864,"byteLength":432,"target":34962,"byteStride":12},{"buffer":0,"byteOffset":1296,"byteLength":432,"target":34962,"byteStride":12},{"buffer":0,"byteOffset":1728,"byteLength":432,"target":34962,"byteStride":12},{"buffer":0,"byteOffset":2160,"byteLength":432,"target":34962,"byteStride":12},{"buffer":0,"byteOffset":2592,"byteLength":432,"target":34962,"byteStride":12},{"buffer":0,"byteOffset":3024,"byteLength":432,"target":34962,"byteStride":12},{"buffer":0,"byteOffset":3456,"byteLength":432,"target":34962,"byteStride":12},{"buffer":0,"byteOffset":3888,"byteLength":432,"target":34962,"byteStride":12},{"buffer":0,"byteOffset":4320,"byteLength":1584,"target":34962,"byteStride":12},{"buffer":0,"byteOffset":5904,"byteLength":1584,"target":34962,"byteStride":12}],"buffers":[{"byteLength":7488,"uri":"data:application/octet-stream;base64,"}],"accessors":[{"bufferView":0,"componentType":5126,"count":36,"max":[48.80609893798828,32.90570068359375,61.82360076904297],"min":[-48.80609893798828,-32.90570068359375,-61.82360076904297],"type":"VEC3"},{"bufferView":1,"componentType":5126,"count":36,"max":[1,1,1],"min":[-1,-1,-1],"type":"VEC3"},{"bufferView":2,"componentType":5126,"count":36,"max":[11.937999725341797,29.108400344848633,23.050500869750977],"min":[-11.937999725341797,-29.108400344848633,-23.050500869750977],"type":"VEC3"},{"bufferView":3,"componentType":5126,"count":36,"max":[1,1,1],"min":[-1,-1,-1],"type":"VEC3"},{"bufferView":4,"componentType":5126,"count":36,"max":[1.7653000354766846,32.90570068359375,40.6781005859375],"min":[-1.7653000354766846,-32.90570068359375,-40.6781005859375],"type":"VEC3"},{"bufferView":5,"componentType":5126,"count":36,"max":[1,1,1],"min":[-1,-1,-1],"type":"VEC3"},{"bufferView":6,"componentType":5126,"count":36,"max":[11.937999725341797,1.4859000444412231,23.050500869750977],"min":[-11.937999725341797,-1.4859000444412231,-23.050500869750977],"type":"VEC3"},{"bufferView":7,"componentType":5126,"count":36,"max":[1,1,1],"min":[-1,-1,-1],"type":"VEC3"},{"bufferView":8,"componentType":5126,"count":36,"max":[1.4859000444412231,1.4859000444412231,2.3113999366760254],"min":[-1.4859000444412231,-1.4859000444412231,-2.3113999366760254],"type":"VEC3"},{"bufferView":9,"componentType":5126,"count":36,"max":[1,1,1],"min":[-1,-1,-1],"type":"VEC3"},{"bufferView":10,"componentType":5126,"count":132,"max":[48.80609893798828,32.90570068359375,61.82360076904297],"min":[-48.80609893798828,-32.90570068359375,-61.82360076904297],"type":"VEC3"},{"bufferView":11,"componentType":5126,"count":132,"max":[1,1,1],"min":[-1,-1,-1],"type":"VEC3"}],"materials":[{"pbrMetallicRoughness":{"baseColorFactor":[0.13286832154414627,0.13286832154414627,1,0.4],"metallicFactor":0.5,"roughnessFactor":0.5},"alphaMode":"BLEND"},{"pbrMetallicRoughness":{"baseColorFactor":[0.3231432091022285,0.3231432091022285,0.6104955708001716,1],"metallicFactor":0.5,"roughnessFactor":0.5}},{"pbrMetallicRoughness":{"baseColorFactor":[0.6104955708001716,0.6104955708001716,0.6104955708001716,1],"metallicFactor":0.5,"roughnessFactor":0.5}}],"meshes":[{"primitives":[{"mode":4,"attributes":{"POSITION":0,"NORMAL":1},"material":0}]},{"primitives":[{"mode":4,"attributes":{"POSITION":2,"NORMAL":3},"material":1}]},{"primitives":[{"mode":4,"attributes":{"POSITION":4,"NORMAL":5},"material":1}]},{"primitives":[{"mode":4,"attributes":{"POSITION":6,"NORMAL":7},"material":1}]},{"primitives":[{"mode":4,"attributes":{"POSITION":8,"NORMAL":9},"material":1}]},{"primitives":[{"mode":4,"attributes":{"POSITION":10,"NORMAL":11},"material":2}]}]}