{"asset":{"version":"2.0","generator":"THREE.GLTFExporter"},"scenes":[{"name":"DetectorChamber > Chamber","nodes":[8],"extras":{"visible":true}}],"scene":0,"nodes":[{"name":"logicDumpMagnetSupportLeg_pv0x2220508","mesh":0},{"matrix":[1,0,0,0,0,2.220446049250313e-16,-1,0,0,1,2.220446049250313e-16,0,-55.61330000000001,-63.6579,-59.13120000000001,1],"children":[0]},{"name":"logicDumpMagnetSupportLeg_pv0x2220540","mesh":0},{"matrix":[1,0,0,0,0,2.220446049250313e-16,-1,0,0,1,2.220446049250313e-16,0,-55.61330000000001,-63.6579,59.13120000000001,1],"children":[2]},{"name":"logicDumpMagnetSupportLeg_pv0x2220578","mesh":0},{"matrix":[1,0,0,0,0,2.220446049250313e-16,-1,0,0,1,2.220446049250313e-16,0,55.61330000000001,-63.6579,0,1],"children":[4]},{"matrix":[1,0,0,0,0,1,0,0,0,0,1,0,0,-44.0942,1316.357,1],"children":[1,3,5]},{"children":[6]},{"children":[7]}],"bufferViews":[{"buffer":0,"byteOffset":0,"byteLength":432,"target":34962,"byteStride":12},{"buffer":0,"byteOffset":432,"byteLength":432,"target":34962,"byteStride":12}],"buffers":[{"byteLength":864,"uri":"data:application/octet-stream;base64,"}],"accessors":[{"bufferView":0,"componentType":5126,"count":36,"max":[7.72160005569458,7.72160005569458,59.847900390625],"min":[-7.72160005569458,-7.72160005569458,-59.847900390625],"type":"VEC3"},{"bufferView":1,"componentType":5126,"count":36,"max":[1,1,1],"min":[-1,-1,-1],"type":"VEC3"}],"materials":[{"pbrMetallicRoughness":{"baseColorFactor":[0.3231432091022285,0.3231432091022285,0.6104955708001716,1],"metallicFactor":0.5,"roughnessFactor":0.5}}],"meshes":[{"primitives":[{"mode":4,"attributes":{"POSITION":0,"NORMAL":1},"material":0}]}]}