{"asset":{"version":"2.0","generator":"THREE.GLTFExporter"},"scenes":[{"name":"DetectorChamber > Chamber","nodes":[7],"extras":{"visible":true}}],"scene":0,"nodes":[{"name":"DumpMagnetField0x2221e50","mesh":0},{"name":"DMBPipeContainer0x2218b60","mesh":1},{"name":"DMBPipe0x22189e0","mesh":2},{"children":[2]},{"matrix":[2.220446049250313e-16,-1,0,0,1,2.220446049250313e-16,0,0,0,0,1,0,0,0,0,1],"children":[1,3]},{"matrix":[2.220446049250313e-16,1,0,0,-1,2.220446049250313e-16,0,0,0,0,1,0,0,-1.6,1306.0610000000001,1],"children":[0,4]},{"children":[5]},{"children":[6]}],"bufferViews":[{"buffer":0,"byteOffset":0,"byteLength":432,"target":34962,"byteStride":12},{"buffer":0,"byteOffset":432,"byteLength":432,"target":34962,"byteStride":12},{"buffer":0,"byteOffset":864,"byteLength":432,"target":34962,"byteStride":12},{"buffer":0,"byteOffset":1296,"byteLength":432,"target":34962,"byteStride":12},{"buffer":0,"byteOffset":1728,"byteLength":1152,"target":34962,"byteStride":12},{"buffer":0,"byteOffset":2880,"byteLength":1152,"target":34962,"byteStride":12}],"buffers":[{"byteLength":4032,"uri":"data:application/octet-stream;base64,"}],"accessors":[{"bufferView":0,"componentType":5126,"count":36,"max":[23.5,2.996000051498413,45.720001220703125],"min":[-23.5,-2.996000051498413,-45.720001220703125],"type":"VEC3"},{"bufferView":1,"componentType":5126,"count":36,"max":[1,1,1],"min":[-1,-1,-1],"type":"VEC3"},{"bufferView":2,"componentType":5126,"count":36,"max":[2.5527000427246094,5.092700004577637,45.720001220703125],"min":[-2.5527000427246094,-5.092700004577637,-45.720001220703125],"type":"VEC3"},{"bufferView":3,"componentType":5126,"count":36,"max":[1,1,1],"min":[-1,-1,-1],"type":"VEC3"},{"bufferView":4,"componentType":5126,"count":96,"max":[2.5527000427246094,5.092700004577637,45.720001220703125],"min":[-2.5527000427246094,-5.092700004577637,-45.720001220703125],"type":"VEC3"},{"bufferView":5,"componentType":5126,"count":96,"max":[1,1,1],"min":[-1,-1,-1],"type":"VEC3"}],"materials":[{"pbrMetallicRoughness":{"baseColorFactor":[0.13286832154414627,0.13286832154414627,1,0.4],"metallicFactor":0.5,"roughnessFactor":0.5},"alphaMode":"BLEND"},{"pbrMetallicRoughness":{"baseColorFactor":[0.3231432091022285,0.3231432091022285,0.6104955708001716,1],"metallicFactor":0.5,"roughnessFactor":0.5}}],"meshes":[{"primitives":[{"mode":4,"attributes":{"POSITION":0,"NORMAL":1},"material":0}]},{"primitives":[{"mode":4,"attributes":{"POSITION":2,"NORMAL":3},"material":0}]},{"primitives":[{"mode":4,"attributes":{"POSITION":4,"NORMAL":5},"material":1}]}]}