{"asset":{"version":"2.0","generator":"THREE.GLTFExporter"},"scenes":[{"name":"DetectorChamber > Chamber","nodes":[3],"extras":{"visible":true}}],"scene":0,"nodes":[{"name":"EDCBellowVac0x223bf40","mesh":0},{"matrix":[0,1,0,0,0,0,1,0,1,0,0,0,0,-4772.31976923077,1823.326,1],"children":[0]},{"children":[1]},{"children":[2]}],"bufferViews":[{"buffer":0,"byteOffset":0,"byteLength":15552,"target":34962,"byteStride":12},{"buffer":0,"byteOffset":15552,"byteLength":15552,"target":34962,"byteStride":12}],"buffers":[{"byteLength":31104,"uri":"data:application/octet-stream;base64,"}],"accessors":[{"bufferView":0,"componentType":5126,"count":1296,"max":[4784.28271484375,31.097618103027344,15.052000045776367],"min":[4754.07861328125,0,-15.052000045776367],"type":"VEC3"},{"bufferView":1,"componentType":5126,"count":1296,"max":[1,0.9999788999557495,1],"min":[-1,-1,-1],"type":"VEC3"}],"materials":[{"pbrMetallicRoughness":{"baseColorFactor":[0.6104955708001716,0.6104955708001716,0.6104955708001716,0.4],"metallicFactor":0.5,"roughnessFactor":0.5},"alphaMode":"BLEND"}],"meshes":[{"primitives":[{"mode":4,"attributes":{"POSITION":0,"NORMAL":1},"material":0}]}]}