{"asset":{"version":"2.0","generator":"THREE.GLTFExporter"},"scenes":[{"name":"DetectorChamber > Chamber","nodes":[5],"extras":{"visible":true}}],"scene":0,"nodes":[{"name":"EDCBellow0x224c650","mesh":0},{"matrix":[0,1,0,0,0,0,1,0,1,0,0,0,0,-4772.31976923077,1823.326,1],"children":[0]},{"name":"EDCBellowVac0x223bf40","mesh":1},{"matrix":[0,1,0,0,0,0,1,0,1,0,0,0,0,-4772.31976923077,1823.326,1],"children":[2]},{"children":[1,3]},{"children":[4]}],"bufferViews":[{"buffer":0,"byteOffset":0,"byteLength":31104,"target":34962,"byteStride":12},{"buffer":0,"byteOffset":31104,"byteLength":31104,"target":34962,"byteStride":12},{"buffer":0,"byteOffset":62208,"byteLength":15552,"target":34962,"byteStride":12},{"buffer":0,"byteOffset":77760,"byteLength":15552,"target":34962,"byteStride":12}],"buffers":[{"byteLength":93312,"uri":"data:application/octet-stream;base64,"}],"accessors":[{"bufferView":0,"componentType":5126,"count":2592,"max":[4784.470703125,31.098840713500977,15.239999771118164],"min":[4753.890625,0,-15.239999771118164],"type":"VEC3"},{"bufferView":1,"componentType":5126,"count":2592,"max":[1,0.9999788999557495,1],"min":[-1,-1,-1],"type":"VEC3"},{"bufferView":2,"componentType":5126,"count":1296,"max":[4784.28271484375,31.097618103027344,15.052000045776367],"min":[4754.07861328125,0,-15.052000045776367],"type":"VEC3"},{"bufferView":3,"componentType":5126,"count":1296,"max":[1,0.9999788999557495,1],"min":[-1,-1,-1],"type":"VEC3"}],"materials":[{"pbrMetallicRoughness":{"baseColorFactor":[0.3231432091022285,0.3231432091022285,0.6104955708001716,1],"metallicFactor":0.5,"roughnessFactor":0.5}},{"pbrMetallicRoughness":{"baseColorFactor":[0.6104955708001716,0.6104955708001716,0.6104955708001716,0.4],"metallicFactor":0.5,"roughnessFactor":0.5},"alphaMode":"BLEND"}],"meshes":[{"primitives":[{"mode":4,"attributes":{"POSITION":0,"NORMAL":1},"material":0}]},{"primitives":[{"mode":4,"attributes":{"POSITION":2,"NORMAL":3},"material":1}]}]}