{"asset":{"version":"2.0","generator":"THREE.GLTFExporter"},"scenes":[{"name":"DetectorChamber > Chamber","nodes":[82],"extras":{"visible":true}}],"scene":0,"nodes":[{"name":"logicEDCContainer_pv0x21cf6a0","mesh":0},{"name":"EDCFrontPipe0x21feca0","mesh":1},{"matrix":[1,0,0,0,0,1,0,0,0,0,1,0,0,-5.186,-32.69,1],"children":[1]},{"name":"EDCFrontPipeVac0x21fede0","mesh":2},{"matrix":[1,0,0,0,0,1,0,0,0,0,1,0,0,-5.186,-32.69,1],"children":[3]},{"name":"EDCBackFlange0x21ffb50","mesh":3},{"name":"EDCBackFlangeVac0x21ff6c0","mesh":4},{"children":[6]},{"matrix":[1,0,0,0,0,1,0,0,0,0,1,0,0,4.34,31.191000000000003,1],"children":[5,7]},{"name":"EDCBackFlangeEx0x2200370","mesh":5},{"matrix":[1,0,0,0,0,1,0,0,0,0,1,0,0,4.34,34.036,1],"children":[9]},{"name":"EDCBackFlangeExVac0x2200ab0","mesh":6},{"matrix":[1,0,0,0,0,1,0,0,0,0,1,0,0,4.34,34.036,1],"children":[11]},{"name":"EDCAsemblyVolume0x2200c70","mesh":7},{"name":"EDCTopPanel0x21fc030","mesh":8},{"matrix":[1,0,0,0,0,1,0,0,0,0,1,0,0,21.171000000000003,0,1],"children":[14]},{"name":"EDCBackPanel0x21fcbf0","mesh":9},{"matrix":[1,0,0,0,0,1,0,0,0,0,1,0,0,-0.952500000000001,28.892500000000002,1],"children":[16]},{"name":"EDCFrontPanel0x21fd480","mesh":10},{"matrix":[1,0,0,0,0,1,0,0,0,0,1,0,0,-0.952500000000001,-28.892500000000002,1],"children":[18]},{"name":"EDCLeftPanel0x21fe1d0","mesh":11},{"matrix":[1,0,0,0,0,1,0,0,0,0,1,0,21.9075,0,0,1],"children":[20]},{"name":"EDCRightPanel0x21fe430","mesh":11},{"matrix":[1,0,0,0,0,1,0,0,0,0,1,0,-21.9075,0,0,1],"children":[22]},{"name":"EDCOpticBoard0x2205250","mesh":12},{"matrix":[1,0,0,0,0,1,0,0,0,0,1,0,0,-20.983500000000003,0,1],"children":[24]},{"matrix":[1,0,0,0,0,1,0,0,0,0,1,0,0,-4.4485,-0.0765000000000043,1],"children":[13,15,17,19,21,23,25]},{"name":"EDCBottom0x2200fe0","mesh":13},{"matrix":[1,0,0,0,0,1,0,0,0,0,1,0,0,-27.524500000000003,-0.0765000000000043,1],"children":[27]},{"name":"EDCCoverTop0x2201410","mesh":14},{"matrix":[1,0,0,0,0,1,0,0,0,0,1,0,0,18.945,-0.0765000000000043,1],"children":[29]},{"name":"EDCCoverRight0x2201820","mesh":15},{"matrix":[1,0,0,0,0,1,0,0,0,0,1,0,-24.130000000000003,-4.169,-0.0765000000000043,1],"children":[31]},{"name":"EDCCoverLeft0x22019a0","mesh":15},{"matrix":[1,0,0,0,0,1,0,0,0,0,1,0,24.130000000000003,-4.169,-0.0765000000000043,1],"children":[33]},{"name":"logicEDCHandleL_pv0x2202650","mesh":16},{"matrix":[1,0,0,0,0,1,0,0,0,0,1,0,0,4.800000000000001,0,1],"children":[35]},{"name":"logicEDCHandleH_pv0x2202688","mesh":17},{"matrix":[1,0,0,0,0,2.220446049250313e-16,1,0,0,-1,2.220446049250313e-16,0,0,1.4000000000000001,8.1755,1],"children":[37]},{"name":"logicEDCHandleH_pv0x22026c0","mesh":17},{"matrix":[1,0,0,0,0,2.220446049250313e-16,1,0,0,-1,2.220446049250313e-16,0,0,1.4000000000000001,-8.1755,1],"children":[39]},{"name":"logicEDCHandleA_pv0x22026f8","mesh":18},{"matrix":[2.220446049250313e-16,0,-1,0,0,1,0,0,1,0,2.220446049250313e-16,0,0,2.8000000000000003,-6.1755,1],"children":[41]},{"name":"logicEDCHandleA_pv0x2202730","mesh":18},{"matrix":[2.220446049250313e-16,0,1,0,0,1,0,0,-1,0,2.220446049250313e-16,0,0,2.8000000000000003,6.1755,1],"children":[43]},{"matrix":[2.220446049250313e-16,0,-1,0,0,1,0,0,1,0,2.220446049250313e-16,0,0,20.215000000000003,22.4155,1],"children":[36,38,40,42,44]},{"name":"logicEDCHandleL_pv0x2202650","mesh":16},{"matrix":[1,0,0,0,0,1,0,0,0,0,1,0,0,4.800000000000001,0,1],"children":[46]},{"name":"logicEDCHandleH_pv0x2202688","mesh":17},{"matrix":[1,0,0,0,0,2.220446049250313e-16,1,0,0,-1,2.220446049250313e-16,0,0,1.4000000000000001,8.1755,1],"children":[48]},{"name":"logicEDCHandleH_pv0x22026c0","mesh":17},{"matrix":[1,0,0,0,0,2.220446049250313e-16,1,0,0,-1,2.220446049250313e-16,0,0,1.4000000000000001,-8.1755,1],"children":[50]},{"name":"logicEDCHandleA_pv0x22026f8","mesh":18},{"matrix":[2.220446049250313e-16,0,-1,0,0,1,0,0,1,0,2.220446049250313e-16,0,0,2.8000000000000003,-6.1755,1],"children":[52]},{"name":"logicEDCHandleA_pv0x2202730","mesh":18},{"matrix":[2.220446049250313e-16,0,1,0,0,1,0,0,-1,0,2.220446049250313e-16,0,0,2.8000000000000003,6.1755,1],"children":[54]},{"matrix":[0,0,1,0,-1,0,0,0,0,-1,0,0,-25.400000000000002,1.1712500000000001,22.4155,1],"children":[47,49,51,53,55]},{"name":"logicEDCHandleL_pv0x2202650","mesh":16},{"matrix":[1,0,0,0,0,1,0,0,0,0,1,0,0,4.800000000000001,0,1],"children":[57]},{"name":"logicEDCHandleH_pv0x2202688","mesh":17},{"matrix":[1,0,0,0,0,2.220446049250313e-16,1,0,0,-1,2.220446049250313e-16,0,0,1.4000000000000001,8.1755,1],"children":[59]},{"name":"logicEDCHandleH_pv0x22026c0","mesh":17},{"matrix":[1,0,0,0,0,2.220446049250313e-16,1,0,0,-1,2.220446049250313e-16,0,0,1.4000000000000001,-8.1755,1],"children":[61]},{"name":"logicEDCHandleA_pv0x22026f8","mesh":18},{"matrix":[2.220446049250313e-16,0,-1,0,0,1,0,0,1,0,2.220446049250313e-16,0,0,2.8000000000000003,-6.1755,1],"children":[63]},{"name":"logicEDCHandleA_pv0x2202730","mesh":18},{"matrix":[2.220446049250313e-16,0,1,0,0,1,0,0,-1,0,2.220446049250313e-16,0,0,2.8000000000000003,6.1755,1],"children":[65]},{"matrix":[2.220446049250313e-16,0,-1,0,0,1,0,0,1,0,2.220446049250313e-16,0,0,20.215000000000003,-22.5685,1],"children":[58,60,62,64,66]},{"name":"logicEDCHandleL_pv0x2202650","mesh":16},{"matrix":[1,0,0,0,0,1,0,0,0,0,1,0,0,4.800000000000001,0,1],"children":[68]},{"name":"logicEDCHandleH_pv0x2202688","mesh":17},{"matrix":[1,0,0,0,0,2.220446049250313e-16,1,0,0,-1,2.220446049250313e-16,0,0,1.4000000000000001,8.1755,1],"children":[70]},{"name":"logicEDCHandleH_pv0x22026c0","mesh":17},{"matrix":[1,0,0,0,0,2.220446049250313e-16,1,0,0,-1,2.220446049250313e-16,0,0,1.4000000000000001,-8.1755,1],"children":[72]},{"name":"logicEDCHandleA_pv0x22026f8","mesh":18},{"matrix":[2.220446049250313e-16,0,-1,0,0,1,0,0,1,0,2.220446049250313e-16,0,0,2.8000000000000003,-6.1755,1],"children":[74]},{"name":"logicEDCHandleA_pv0x2202730","mesh":18},{"matrix":[2.220446049250313e-16,0,1,0,0,1,0,0,-1,0,2.220446049250313e-16,0,0,2.8000000000000003,6.1755,1],"children":[76]},{"matrix":[0,0,1,0,-1,0,0,0,0,-1,0,0,-25.400000000000002,1.1712500000000001,-22.5685,1],"children":[69,71,73,75,77]},{"matrix":[1,0,0,0,0,1,0,0,0,0,1,0,0,28.477,35.4585,1],"children":[0,2,4,8,10,12,26,28,30,32,34,45,56,67,78]},{"matrix":[1,0,0,0,0,1,0,0,0,0,1,0,0,-35.906,1752.409,1],"children":[79]},{"children":[80]},{"children":[81]}],"bufferViews":[{"buffer":0,"byteOffset":0,"byteLength":432,"target":34962,"byteStride":12},{"buffer":0,"byteOffset":432,"byteLength":432,"target":34962,"byteStride":12},{"buffer":0,"byteOffset":864,"byteLength":6912,"target":34962,"byteStride":12},{"buffer":0,"byteOffset":7776,"byteLength":6912,"target":34962,"byteStride":12},{"buffer":0,"byteOffset":14688,"byteLength":3456,"target":34962,"byteStride":12},{"buffer":0,"byteOffset":18144,"byteLength":3456,"target":34962,"byteStride":12},{"buffer":0,"byteOffset":21600,"byteLength":3456,"target":34962,"byteStride":12},{"buffer":0,"byteOffset":25056,"byteLength":3456,"target":34962,"byteStride":12},{"buffer":0,"byteOffset":28512,"byteLength":6192,"target":34962,"byteStride":12},{"buffer":0,"byteOffset":34704,"byteLength":6192,"target":34962,"byteStride":12},{"buffer":0,"byteOffset":40896,"byteLength":6912,"target":34962,"byteStride":12},{"buffer":0,"byteOffset":47808,"byteLength":6912,"target":34962,"byteStride":12},{"buffer":0,"byteOffset":54720,"byteLength":3456,"target":34962,"byteStride":12},{"buffer":0,"byteOffset":58176,"byteLength":3456,"target":34962,"byteStride":12},{"buffer":0,"byteOffset":61632,"byteLength":432,"target":34962,"byteStride":12},{"buffer":0,"byteOffset":62064,"byteLength":432,"target":34962,"byteStride":12},{"buffer":0,"byteOffset":62496,"byteLength":1152,"target":34962,"byteStride":12},{"buffer":0,"byteOffset":63648,"byteLength":1152,"target":34962,"byteStride":12},{"buffer":0,"byteOffset":64800,"byteLength":3312,"target":34962,"byteStride":12},{"buffer":0,"byteOffset":68112,"byteLength":3312,"target":34962,"byteStride":12},{"buffer":0,"byteOffset":71424,"byteLength":4032,"target":34962,"byteStride":12},{"buffer":0,"byteOffset":75456,"byteLength":4032,"target":34962,"byteStride":12},{"buffer":0,"byteOffset":79488,"byteLength":1152,"target":34962,"byteStride":12},{"buffer":0,"byteOffset":80640,"byteLength":1152,"target":34962,"byteStride":12},{"buffer":0,"byteOffset":81792,"byteLength":432,"target":34962,"byteStride":12},{"buffer":0,"byteOffset":82224,"byteLength":432,"target":34962,"byteStride":12},{"buffer":0,"byteOffset":82656,"byteLength":432,"target":34962,"byteStride":12},{"buffer":0,"byteOffset":83088,"byteLength":432,"target":34962,"byteStride":12},{"buffer":0,"byteOffset":83520,"byteLength":432,"target":34962,"byteStride":12},{"buffer":0,"byteOffset":83952,"byteLength":432,"target":34962,"byteStride":12},{"buffer":0,"byteOffset":84384,"byteLength":432,"target":34962,"byteStride":12},{"buffer":0,"byteOffset":84816,"byteLength":432,"target":34962,"byteStride":12},{"buffer":0,"byteOffset":85248,"byteLength":3456,"target":34962,"byteStride":12},{"buffer":0,"byteOffset":88704,"byteLength":3456,"target":34962,"byteStride":12},{"buffer":0,"byteOffset":92160,"byteLength":3456,"target":34962,"byteStride":12},{"buffer":0,"byteOffset":95616,"byteLength":3456,"target":34962,"byteStride":12},{"buffer":0,"byteOffset":99072,"byteLength":15552,"target":34962,"byteStride":12},{"buffer":0,"byteOffset":114624,"byteLength":15552,"target":34962,"byteStride":12}],"buffers":[{"byteLength":130176,"uri":"data:application/octet-stream;base64,"}],"accessors":[{"bufferView":0,"componentType":5126,"count":36,"max":[31.200000762939453,28.476999282836914,35.458499908447266],"min":[-31.200000762939453,-28.476999282836914,-35.458499908447266],"type":"VEC3"},{"bufferView":1,"componentType":5126,"count":36,"max":[1,1,1],"min":[-1,-1,-1],"type":"VEC3"},{"bufferView":2,"componentType":5126,"count":576,"max":[20.954999923706055,20.954999923706055,2.7685000896453857],"min":[-20.954999923706055,-20.954999923706055,-2.7685000896453857],"type":"VEC3"},{"bufferView":3,"componentType":5126,"count":576,"max":[1,1,1],"min":[-1,-1,-1],"type":"VEC3"},{"bufferView":4,"componentType":5126,"count":288,"max":[17.46299934387207,17.46299934387207,2.7685000896453857],"min":[-17.46299934387207,-17.46299934387207,-2.7685000896453857],"type":"VEC3"},{"bufferView":5,"componentType":5126,"count":288,"max":[1,1,1],"min":[-1,-1,-1],"type":"VEC3"},{"bufferView":6,"componentType":5126,"count":288,"max":[20.878999710083008,20.878999710083008,1.4225000143051147],"min":[-20.878999710083008,-20.878999710083008,-1.4225000143051147],"type":"VEC3"},{"bufferView":7,"componentType":5126,"count":288,"max":[1,1,1],"min":[-1,-1,-1],"type":"VEC3"},{"bufferView":8,"componentType":5126,"count":516,"max":[20.878999710083008,20.878999710083008,1.4225000143051147],"min":[-20.878999710083008,-20.878999710083008,-1.4225000143051147],"type":"VEC3"},{"bufferView":9,"componentType":5126,"count":516,"max":[1,1,1],"min":[-1,-1,-1],"type":"VEC3"},{"bufferView":10,"componentType":5126,"count":576,"max":[20.954999923706055,20.954999923706055,1.4225000143051147],"min":[-20.954999923706055,-20.954999923706055,-1.4225000143051147],"type":"VEC3"},{"bufferView":11,"componentType":5126,"count":576,"max":[1,1,1],"min":[-1,-1,-1],"type":"VEC3"},{"bufferView":12,"componentType":5126,"count":288,"max":[15.052000045776367,15.052000045776367,1.4225000143051147],"min":[-15.052000045776367,-15.052000045776367,-1.4225000143051147],"type":"VEC3"},{"bufferView":13,"componentType":5126,"count":288,"max":[1,1,1],"min":[-1,-1,-1],"type":"VEC3"},{"bufferView":14,"componentType":5126,"count":36,"max":[22.860000610351562,22.12350082397461,29.844999313354492],"min":[-22.860000610351562,-22.12350082397461,-29.844999313354492],"type":"VEC3"},{"bufferView":15,"componentType":5126,"count":36,"max":[1,1,1],"min":[-1,-1,-1],"type":"VEC3"},{"bufferView":16,"componentType":5126,"count":96,"max":[20.954999923706055,0.9524999856948853,29.844999313354492],"min":[-20.954999923706055,-0.9524999856948853,-29.844999313354492],"type":"VEC3"},{"bufferView":17,"componentType":5126,"count":96,"max":[1,1,1],"min":[-1,-1,-1],"type":"VEC3"},{"bufferView":18,"componentType":5126,"count":276,"max":[20.954999923706055,21.17099952697754,0.9524999856948853],"min":[-20.954999923706055,-21.17099952697754,-0.9524999856948853],"type":"VEC3"},{"bufferView":19,"componentType":5126,"count":276,"max":[1,1,1],"min":[-1,-1,-1],"type":"VEC3"},{"bufferView":20,"componentType":5126,"count":336,"max":[20.954999923706055,21.17099952697754,0.9524999856948853],"min":[-20.954999923706055,-21.17099952697754,-0.9524999856948853],"type":"VEC3"},{"bufferView":21,"componentType":5126,"count":336,"max":[1,1,1],"min":[-1,-1,-1],"type":"VEC3"},{"bufferView":22,"componentType":5126,"count":96,"max":[0.9524999856948853,22.12350082397461,29.844999313354492],"min":[-0.9524999856948853,-22.12350082397461,-29.844999313354492],"type":"VEC3"},{"bufferView":23,"componentType":5126,"count":96,"max":[1,1,1],"min":[-1,-1,-1],"type":"VEC3"},{"bufferView":24,"componentType":5126,"count":36,"max":[19.049999237060547,0.5839999914169312,26.03499984741211],"min":[-19.049999237060547,-0.5839999914169312,-26.03499984741211],"type":"VEC3"},{"bufferView":25,"componentType":5126,"count":36,"max":[1,1,1],"min":[-1,-1,-1],"type":"VEC3"},{"bufferView":26,"componentType":5126,"count":36,"max":[25.399999618530273,0.9524999856948853,33.654998779296875],"min":[-25.399999618530273,-0.9524999856948853,-33.654998779296875],"type":"VEC3"},{"bufferView":27,"componentType":5126,"count":36,"max":[1,1,1],"min":[-1,-1,-1],"type":"VEC3"},{"bufferView":28,"componentType":5126,"count":36,"max":[19.836999893188477,1.2699999809265137,28.091999053955078],"min":[-19.836999893188477,-1.2699999809265137,-28.091999053955078],"type":"VEC3"},{"bufferView":29,"componentType":5126,"count":36,"max":[1,1,1],"min":[-1,-1,-1],"type":"VEC3"},{"bufferView":30,"componentType":5126,"count":36,"max":[1.2699999809265137,21.361000061035156,29.996999740600586],"min":[-1.2699999809265137,-21.361000061035156,-29.996999740600586],"type":"VEC3"},{"bufferView":31,"componentType":5126,"count":36,"max":[1,1,1],"min":[-1,-1,-1],"type":"VEC3"},{"bufferView":32,"componentType":5126,"count":288,"max":[1,1,6.17549991607666],"min":[-1,-1,-6.17549991607666],"type":"VEC3"},{"bufferView":33,"componentType":5126,"count":288,"max":[1,1,1],"min":[-1,-1,-1],"type":"VEC3"},{"bufferView":34,"componentType":5126,"count":288,"max":[1,1,1.399999976158142],"min":[-1,-1,-1.399999976158142],"type":"VEC3"},{"bufferView":35,"componentType":5126,"count":288,"max":[1,1,1],"min":[-1,-1,-1],"type":"VEC3"},{"bufferView":36,"componentType":5126,"count":1296,"max":[3,3,1],"min":[6.123234262925839e-17,0,-1],"type":"VEC3"},{"bufferView":37,"componentType":5126,"count":1296,"max":[1,1,1],"min":[-1,-1,-1],"type":"VEC3"}],"materials":[{"pbrMetallicRoughness":{"baseColorFactor":[0.13286832154414627,0.13286832154414627,1,0.4],"metallicFactor":0.5,"roughnessFactor":0.5},"alphaMode":"BLEND"},{"pbrMetallicRoughness":{"baseColorFactor":[0.3231432091022285,0.3231432091022285,0.6104955708001716,1],"metallicFactor":0.5,"roughnessFactor":0.5}},{"pbrMetallicRoughness":{"baseColorFactor":[0.6104955708001716,0.6104955708001716,0.6104955708001716,0.4],"metallicFactor":0.5,"roughnessFactor":0.5},"alphaMode":"BLEND"},{"pbrMetallicRoughness":{"baseColorFactor":[0.6104955708001716,0.6104955708001716,1,1],"metallicFactor":0.5,"roughnessFactor":0.5}}],"meshes":[{"primitives":[{"mode":4,"attributes":{"POSITION":0,"NORMAL":1},"material":0}]},{"primitives":[{"mode":4,"attributes":{"POSITION":2,"NORMAL":3},"material":1}]},{"primitives":[{"mode":4,"attributes":{"POSITION":4,"NORMAL":5},"material":2}]},{"primitives":[{"mode":4,"attributes":{"POSITION":6,"NORMAL":7},"material":2}]},{"primitives":[{"mode":4,"attributes":{"POSITION":8,"NORMAL":9},"material":1}]},{"primitives":[{"mode":4,"attributes":{"POSITION":10,"NORMAL":11},"material":1}]},{"primitives":[{"mode":4,"attributes":{"POSITION":12,"NORMAL":13},"material":2}]},{"primitives":[{"mode":4,"attributes":{"POSITION":14,"NORMAL":15},"material":2}]},{"primitives":[{"mode":4,"attributes":{"POSITION":16,"NORMAL":17},"material":1}]},{"primitives":[{"mode":4,"attributes":{"POSITION":18,"NORMAL":19},"material":1}]},{"primitives":[{"mode":4,"attributes":{"POSITION":20,"NORMAL":21},"material":1}]},{"primitives":[{"mode":4,"attributes":{"POSITION":22,"NORMAL":23},"material":1}]},{"primitives":[{"mode":4,"attributes":{"POSITION":24,"NORMAL":25},"material":3}]},{"primitives":[{"mode":4,"attributes":{"POSITION":26,"NORMAL":27},"material":1}]},{"primitives":[{"mode":4,"attributes":{"POSITION":28,"NORMAL":29},"material":1}]},{"primitives":[{"mode":4,"attributes":{"POSITION":30,"NORMAL":31},"material":1}]},{"primitives":[{"mode":4,"attributes":{"POSITION":32,"NORMAL":33},"material":1}]},{"primitives":[{"mode":4,"attributes":{"POSITION":34,"NORMAL":35},"material":1}]},{"primitives":[{"mode":4,"attributes":{"POSITION":36,"NORMAL":37},"material":1}]}]}