{"asset":{"version":"2.0","generator":"THREE.GLTFExporter"},"scenes":[{"name":"DetectorChamber > Chamber","nodes":[6],"extras":{"visible":true}}],"scene":0,"nodes":[{"name":"logicEDCGDCBPipe2Flange_pv0x2240540","mesh":0},{"matrix":[1,0,0,0,0,1,0,0,0,0,1,0,0,0,-63.578873149173106,1],"children":[0]},{"name":"logicEDCGDCBPipe2Flange_pv0x2240578","mesh":0},{"matrix":[1,0,0,0,0,1,0,0,0,0,1,0,0,0,63.578873149173106,1],"children":[2]},{"matrix":[1,0,0,0,0,0.9999788750743775,0.006499954229263355,0,0,-0.006499954229263355,0.9999788750743775,0,0,-5.170262537586661,2159.0159019121597,1],"children":[1,3]},{"children":[4]},{"children":[5]}],"bufferViews":[{"buffer":0,"byteOffset":0,"byteLength":6912,"target":34962,"byteStride":12},{"buffer":0,"byteOffset":6912,"byteLength":6912,"target":34962,"byteStride":12}],"buffers":[{"byteLength":13824,"uri":"data:application/octet-stream;base64,"}],"accessors":[{"bufferView":0,"componentType":5126,"count":576,"max":[24.049999237060547,24.049999237060547,1.4225000143051147],"min":[-24.049999237060547,-24.049999237060547,-1.4225000143051147],"type":"VEC3"},{"bufferView":1,"componentType":5126,"count":576,"max":[1,1,1],"min":[-1,-1,-1],"type":"VEC3"}],"materials":[{"pbrMetallicRoughness":{"baseColorFactor":[0.3231432091022285,0.3231432091022285,0.6104955708001716,1],"metallicFactor":0.5,"roughnessFactor":0.5}}],"meshes":[{"primitives":[{"mode":4,"attributes":{"POSITION":0,"NORMAL":1},"material":0}]}]}