{"asset":{"version":"2.0","generator":"THREE.GLTFExporter"},"scenes":[{"name":"DetectorChamber > Chamber","nodes":[6],"extras":{"visible":true}}],"scene":0,"nodes":[{"name":"logicFlashMagnetHalf_pv0x221c390","mesh":0},{"matrix":[1,0,0,0,0,1,0,0,0,0,1,0,0,14.287500000000001,0,1],"children":[0]},{"name":"logicFlashMagnetHalf_pv0x221c5c0","mesh":0},{"matrix":[-1,1.2246467991473532e-16,0,0,-1.2246467991473532e-16,-1,0,0,0,0,1,0,-1.74971411428178e-15,-14.287500000000001,0,1],"children":[2]},{"matrix":[2.220446049250313e-16,1,0,0,-1,2.220446049250313e-16,0,0,0,0,1,0,0,-1.6,1306.0610000000001,1],"children":[1,3]},{"children":[4]},{"children":[5]}],"bufferViews":[{"buffer":0,"byteOffset":0,"byteLength":2160,"target":34962,"byteStride":12},{"buffer":0,"byteOffset":2160,"byteLength":2160,"target":34962,"byteStride":12}],"buffers":[{"byteLength":4320,"uri":"data:application/octet-stream;base64,"}],"accessors":[{"bufferView":0,"componentType":5126,"count":180,"max":[33.654998779296875,14.287500381469727,45.720001220703125],"min":[-33.654998779296875,-14.287500381469727,-45.720001220703125],"type":"VEC3"},{"bufferView":1,"componentType":5126,"count":180,"max":[1,1,1],"min":[-1,-1,-1],"type":"VEC3"}],"materials":[{"pbrMetallicRoughness":{"baseColorFactor":[0.3231432091022285,0.3231432091022285,0.6104955708001716,1],"metallicFactor":0.5,"roughnessFactor":0.5}}],"meshes":[{"primitives":[{"mode":4,"attributes":{"POSITION":0,"NORMAL":1},"material":0}]}]}