{"asset":{"version":"2.0","generator":"THREE.GLTFExporter"},"scenes":[{"name":"DetectorChamber > Chamber","nodes":[18],"extras":{"visible":true}}],"scene":0,"nodes":[{"name":"logicFlashMCoilR_pv0x221c4e0","mesh":0},{"matrix":[1,0,0,0,0,2.220446049250313e-16,1,0,0,-1,2.220446049250313e-16,0,11.5,10.516,46.72,1],"children":[0]},{"name":"logicFlashMCoilR_pv0x221c518","mesh":0},{"matrix":[0,0,1,0,-1,0,0,0,0,-1,0,0,-11.5,10.516,46.72,1],"children":[2]},{"name":"logicFlashMCoilR_pv0x221c550","mesh":0},{"matrix":[0,0,-1,0,1,0,0,0,0,-1,0,0,11.5,10.516,-46.72,1],"children":[4]},{"name":"logicFlashMCoilR_pv0x221c588","mesh":0},{"matrix":[-1,1.232595164407831e-32,1.224646799147353e-16,0,-1.224646799147353e-16,-2.220446049250313e-16,-1,0,1.232595164407831e-32,-1,2.220446049250313e-16,0,-11.5,10.516,-46.72,1],"children":[6]},{"name":"logicFlashMCoilR_pv0x221c710","mesh":0},{"matrix":[-1,1.232595164407831e-32,-1.224646799147353e-16,0,-1.224646799147353e-16,-2.220446049250313e-16,1,0,-1.232595164407831e-32,1,2.220446049250313e-16,0,-11.5,-10.516,46.72,1],"children":[8]},{"name":"logicFlashMCoilR_pv0x221c748","mesh":0},{"matrix":[0,0,1,0,1,0,0,0,0,1,0,0,11.5,-10.516,46.72,1],"children":[10]},{"name":"logicFlashMCoilR_pv0x221c780","mesh":0},{"matrix":[0,0,-1,0,-1,0,0,0,0,1,0,0,-11.5,-10.516,-46.72,1],"children":[12]},{"name":"logicFlashMCoilR_pv0x221c7b8","mesh":0},{"matrix":[1,0,0,0,0,2.220446049250313e-16,-1,0,0,1,2.220446049250313e-16,0,11.5,-10.516,-46.72,1],"children":[14]},{"matrix":[2.220446049250313e-16,1,0,0,-1,2.220446049250313e-16,0,0,0,0,1,0,0,-1.6,1306.0610000000001,1],"children":[1,3,5,7,9,11,13,15]},{"children":[16]},{"children":[17]}],"bufferViews":[{"buffer":0,"byteOffset":0,"byteLength":1008,"target":34962,"byteStride":12},{"buffer":0,"byteOffset":1008,"byteLength":1008,"target":34962,"byteStride":12}],"buffers":[{"byteLength":2016,"uri":"data:application/octet-stream;base64,"}],"accessors":[{"bufferView":0,"componentType":5126,"count":84,"max":[11,11,5],"min":[0,0,-5],"type":"VEC3"},{"bufferView":1,"componentType":5126,"count":84,"max":[1,1,1],"min":[-1,-1,-1],"type":"VEC3"}],"materials":[{"pbrMetallicRoughness":{"baseColorFactor":[0.6104955708001716,0.033104766565152086,0,1],"metallicFactor":0.5,"roughnessFactor":0.5}}],"meshes":[{"primitives":[{"mode":4,"attributes":{"POSITION":0,"NORMAL":1},"material":0}]}]}