{"asset":{"version":"2.0","generator":"THREE.GLTFExporter"},"scenes":[{"name":"DetectorChamber > Chamber","nodes":[10],"extras":{"visible":true}}],"scene":0,"nodes":[{"name":"logicFlashMagnetCoilZ_pv0x221c400","mesh":0},{"matrix":[1,0,0,0,0,1,0,0,0,0,1,0,17,10.516,0,1],"children":[0]},{"name":"logicFlashMagnetCoilZ_pv0x221c438","mesh":0},{"matrix":[1,0,0,0,0,1,0,0,0,0,1,0,-17,10.516,0,1],"children":[2]},{"name":"logicFlashMagnetCoilZ_pv0x221c630","mesh":0},{"matrix":[-1,1.2246467991473532e-16,0,0,-1.2246467991473532e-16,-1,0,0,0,0,1,0,-17,-10.516,0,1],"children":[4]},{"name":"logicFlashMagnetCoilZ_pv0x221c668","mesh":0},{"matrix":[-1,1.2246467991473532e-16,0,0,-1.2246467991473532e-16,-1,0,0,0,0,1,0,17,-10.516,0,1],"children":[6]},{"matrix":[2.220446049250313e-16,1,0,0,-1,2.220446049250313e-16,0,0,0,0,1,0,0,-1.6,1306.0610000000001,1],"children":[1,3,5,7]},{"children":[8]},{"children":[9]}],"bufferViews":[{"buffer":0,"byteOffset":0,"byteLength":432,"target":34962,"byteStride":12},{"buffer":0,"byteOffset":432,"byteLength":432,"target":34962,"byteStride":12}],"buffers":[{"byteLength":864,"uri":"data:application/octet-stream;base64,"}],"accessors":[{"bufferView":0,"componentType":5126,"count":36,"max":[5.5,5,46.720001220703125],"min":[-5.5,-5,-46.720001220703125],"type":"VEC3"},{"bufferView":1,"componentType":5126,"count":36,"max":[1,1,1],"min":[-1,-1,-1],"type":"VEC3"}],"materials":[{"pbrMetallicRoughness":{"baseColorFactor":[0.6104955708001716,0.033104766565152086,0,1],"metallicFactor":0.5,"roughnessFactor":0.5}}],"meshes":[{"primitives":[{"mode":4,"attributes":{"POSITION":0,"NORMAL":1},"material":0}]}]}