{"asset":{"version":"2.0","generator":"THREE.GLTFExporter"},"scenes":[{"name":"DetectorChamber > Chamber","nodes":[6],"extras":{"visible":true}}],"scene":0,"nodes":[{"name":"logicFlashMagnetCore_pv0x221c3c8","mesh":0},{"matrix":[1,0,0,0,0,1,0,0,0,0,1,0,0,9.256,0,1],"children":[0]},{"name":"logicFlashMagnetCore_pv0x221c5f8","mesh":0},{"matrix":[-1,1.2246467991473532e-16,0,0,-1.2246467991473532e-16,-1,0,0,0,0,1,0,-1.13353307729079e-15,-9.256,0,1],"children":[2]},{"matrix":[2.220446049250313e-16,1,0,0,-1,2.220446049250313e-16,0,0,0,0,1,0,0,-1.6,1306.0610000000001,1],"children":[1,3]},{"children":[4]},{"children":[5]}],"bufferViews":[{"buffer":0,"byteOffset":0,"byteLength":1584,"target":34962,"byteStride":12},{"buffer":0,"byteOffset":1584,"byteLength":1584,"target":34962,"byteStride":12}],"buffers":[{"byteLength":3168,"uri":"data:application/octet-stream;base64,"}],"accessors":[{"bufferView":0,"componentType":5126,"count":132,"max":[10.5,6.260000228881836,45.720001220703125],"min":[-10.5,-6.260000228881836,-45.720001220703125],"type":"VEC3"},{"bufferView":1,"componentType":5126,"count":132,"max":[1,1,1],"min":[-1,-1,-1],"type":"VEC3"}],"materials":[{"pbrMetallicRoughness":{"baseColorFactor":[0.3231432091022285,0.3231432091022285,0.6104955708001716,1],"metallicFactor":0.5,"roughnessFactor":0.5}}],"meshes":[{"primitives":[{"mode":4,"attributes":{"POSITION":0,"NORMAL":1},"material":0}]}]}