{"asset":{"version":"2.0","generator":"THREE.GLTFExporter"},"scenes":[{"name":"DetectorChamber > Chamber","nodes":[18],"extras":{"visible":true}}],"scene":0,"nodes":[{"name":"logicGDCContainer_pv0x220c570","mesh":0},{"name":"GDCAsemblyVolume0x220ba10","mesh":1},{"name":"GDCTopPanel0x220abf0","mesh":2},{"matrix":[1,0,0,0,0,1,0,0,0,0,1,0,0,29.047500000000003,0,1],"children":[2]},{"name":"GDCBackPanel0x220b290","mesh":3},{"matrix":[1,0,0,0,0,1,0,0,0,0,1,0,0,-0.9524999999999981,21.5475,1],"children":[4]},{"name":"GDCFrontPanel0x220b410","mesh":3},{"matrix":[1,0,0,0,0,1,0,0,0,0,1,0,0,-0.9524999999999981,-21.5475,1],"children":[6]},{"name":"GDCLeftPanel0x220b7a0","mesh":4},{"matrix":[1,0,0,0,0,1,0,0,0,0,1,0,24.0475,0,0,1],"children":[8]},{"name":"GDCRightPanel0x220b8b0","mesh":4},{"matrix":[1,0,0,0,0,1,0,0,0,0,1,0,-24.0475,0,0,1],"children":[10]},{"matrix":[1,0,0,0,0,1,0,0,0,0,1,0,0,0.952500000000002,0,1],"children":[1,3,5,7,9,11]},{"name":"GDCBottom0x220bdc0","mesh":5},{"matrix":[1,0,0,0,0,1,0,0,0,0,1,0,0,-30,0,1],"children":[13]},{"matrix":[1,0,0,0,0,1,0,0,0,0,1,0,0,30.9525,22.5,1],"children":[0,12,14]},{"matrix":[1,0,0,0,0,1,0,0,0,0,1,0,-13.905000000000001,-27.166164783918205,2226.5,1],"children":[15]},{"children":[16]},{"children":[17]}],"bufferViews":[{"buffer":0,"byteOffset":0,"byteLength":432,"target":34962,"byteStride":12},{"buffer":0,"byteOffset":432,"byteLength":432,"target":34962,"byteStride":12},{"buffer":0,"byteOffset":864,"byteLength":432,"target":34962,"byteStride":12},{"buffer":0,"byteOffset":1296,"byteLength":432,"target":34962,"byteStride":12},{"buffer":0,"byteOffset":1728,"byteLength":432,"target":34962,"byteStride":12},{"buffer":0,"byteOffset":2160,"byteLength":432,"target":34962,"byteStride":12},{"buffer":0,"byteOffset":2592,"byteLength":3600,"target":34962,"byteStride":12},{"buffer":0,"byteOffset":6192,"byteLength":3600,"target":34962,"byteStride":12},{"buffer":0,"byteOffset":9792,"byteLength":432,"target":34962,"byteStride":12},{"buffer":0,"byteOffset":10224,"byteLength":432,"target":34962,"byteStride":12},{"buffer":0,"byteOffset":10656,"byteLength":432,"target":34962,"byteStride":12},{"buffer":0,"byteOffset":11088,"byteLength":432,"target":34962,"byteStride":12}],"buffers":[{"byteLength":11520,"uri":"data:application/octet-stream;base64,"}],"accessors":[{"bufferView":0,"componentType":5126,"count":36,"max":[28.799999237060547,30.952499389648438,22.5],"min":[-28.799999237060547,-30.952499389648438,-22.5],"type":"VEC3"},{"bufferView":1,"componentType":5126,"count":36,"max":[1,1,1],"min":[-1,-1,-1],"type":"VEC3"},{"bufferView":2,"componentType":5126,"count":36,"max":[25,30,22.5],"min":[-25,-30,-22.5],"type":"VEC3"},{"bufferView":3,"componentType":5126,"count":36,"max":[1,1,1],"min":[-1,-1,-1],"type":"VEC3"},{"bufferView":4,"componentType":5126,"count":36,"max":[23.094999313354492,0.9524999856948853,22.5],"min":[-23.094999313354492,-0.9524999856948853,-22.5],"type":"VEC3"},{"bufferView":5,"componentType":5126,"count":36,"max":[1,1,1],"min":[-1,-1,-1],"type":"VEC3"},{"bufferView":6,"componentType":5126,"count":300,"max":[23.094999313354492,29.047500610351562,0.9524999856948853],"min":[-23.094999313354492,-29.047500610351562,-0.9524999856948853],"type":"VEC3"},{"bufferView":7,"componentType":5126,"count":300,"max":[1,1,1],"min":[-1,-1,-1],"type":"VEC3"},{"bufferView":8,"componentType":5126,"count":36,"max":[0.9524999856948853,30,22.5],"min":[-0.9524999856948853,-30,-22.5],"type":"VEC3"},{"bufferView":9,"componentType":5126,"count":36,"max":[1,1,1],"min":[-1,-1,-1],"type":"VEC3"},{"bufferView":10,"componentType":5126,"count":36,"max":[28.799999237060547,0.9524999856948853,22.5],"min":[-28.799999237060547,-0.9524999856948853,-22.5],"type":"VEC3"},{"bufferView":11,"componentType":5126,"count":36,"max":[1,1,1],"min":[-1,-1,-1],"type":"VEC3"}],"materials":[{"pbrMetallicRoughness":{"baseColorFactor":[0.13286832154414627,0.13286832154414627,1,0.4],"metallicFactor":0.5,"roughnessFactor":0.5},"alphaMode":"BLEND"},{"pbrMetallicRoughness":{"baseColorFactor":[0.6104955708001716,0.6104955708001716,0.6104955708001716,0.4],"metallicFactor":0.5,"roughnessFactor":0.5},"alphaMode":"BLEND"},{"pbrMetallicRoughness":{"baseColorFactor":[0.3231432091022285,0.3231432091022285,0.6104955708001716,1],"metallicFactor":0.5,"roughnessFactor":0.5}}],"meshes":[{"primitives":[{"mode":4,"attributes":{"POSITION":0,"NORMAL":1},"material":0}]},{"primitives":[{"mode":4,"attributes":{"POSITION":2,"NORMAL":3},"material":1}]},{"primitives":[{"mode":4,"attributes":{"POSITION":4,"NORMAL":5},"material":2}]},{"primitives":[{"mode":4,"attributes":{"POSITION":6,"NORMAL":7},"material":2}]},{"primitives":[{"mode":4,"attributes":{"POSITION":8,"NORMAL":9},"material":2}]},{"primitives":[{"mode":4,"attributes":{"POSITION":10,"NORMAL":11},"material":2}]}]}