{"asset":{"version":"2.0","generator":"THREE.GLTFExporter"},"scenes":[{"name":"DetectorChamber > Chamber","nodes":[3],"extras":{"visible":true}}],"scene":0,"nodes":[{"name":"GDCJoinPipeVac0x224a0f0","mesh":0},{"matrix":[1,0,0,0,0,1,0,0,0,0,1,0,0,-5.592768487895551,2225.25795095608,1],"children":[0]},{"children":[1]},{"children":[2]}],"bufferViews":[{"buffer":0,"byteOffset":0,"byteLength":3096,"target":34962,"byteStride":12},{"buffer":0,"byteOffset":3096,"byteLength":3096,"target":34962,"byteStride":12}],"buffers":[{"byteLength":6192,"uri":"data:application/octet-stream;base64,"}],"accessors":[{"bufferView":0,"componentType":5126,"count":258,"max":[9.1899995803833,19.049999237060547,1.2420490980148315],"min":[-19.049999237060547,-19.049999237060547,-1.3658758401870728],"type":"VEC3"},{"bufferView":1,"componentType":5126,"count":258,"max":[1,1,1],"min":[-1,-1,-0.9999788999557495],"type":"VEC3"}],"materials":[{"pbrMetallicRoughness":{"baseColorFactor":[0.6104955708001716,0.6104955708001716,0.6104955708001716,0.4],"metallicFactor":0.5,"roughnessFactor":0.5},"alphaMode":"BLEND"}],"meshes":[{"primitives":[{"mode":4,"attributes":{"POSITION":0,"NORMAL":1},"material":0}]}]}