{"asset":{"version":"2.0","generator":"THREE.GLTFExporter"},"scenes":[{"name":"DetectorChamber > Chamber","nodes":[4],"extras":{"visible":true}}],"scene":0,"nodes":[{"name":"logicGDCOptTblTop_pv0x220da70","mesh":0},{"matrix":[1,0,0,0,0,1,0,0,0,0,1,0,13.905000000000001,-3.74,120.75,1],"children":[0]},{"matrix":[1,0,0,0,0,1,0,0,0,0,1,0,-13.905000000000001,-27.166164783918205,2226.5,1],"children":[1]},{"children":[2]},{"children":[3]}],"bufferViews":[{"buffer":0,"byteOffset":0,"byteLength":432,"target":34962,"byteStride":12},{"buffer":0,"byteOffset":432,"byteLength":432,"target":34962,"byteStride":12}],"buffers":[{"byteLength":864,"uri":"data:application/octet-stream;base64,"}],"accessors":[{"bufferView":0,"componentType":5126,"count":36,"max":[78.7780990600586,0.23999999463558197,120.75],"min":[-78.7780990600586,-0.23999999463558197,-120.75],"type":"VEC3"},{"bufferView":1,"componentType":5126,"count":36,"max":[1,1,1],"min":[-1,-1,-1],"type":"VEC3"}],"materials":[{"pbrMetallicRoughness":{"baseColorFactor":[0.3231432091022285,0.3231432091022285,0.6104955708001716,1],"metallicFactor":0.5,"roughnessFactor":0.5}}],"meshes":[{"primitives":[{"mode":4,"attributes":{"POSITION":0,"NORMAL":1},"material":0}]}]}