{"asset":{"version":"2.0","generator":"THREE.GLTFExporter"},"scenes":[{"name":"DetectorChamber > beampipe","nodes":[4],"extras":{"visible":true}}],"scene":0,"nodes":[{"name":"logicICUpstrBPipeVac_pv0x2241898","mesh":0},{"children":[0]},{"matrix":[1,0,0,0,0,1,0,0,0,0,1,0,0,0,-272.87600000000003,1],"children":[1]},{"children":[2]},{"children":[3]}],"bufferViews":[{"buffer":0,"byteOffset":0,"byteLength":3456,"target":34962,"byteStride":12},{"buffer":0,"byteOffset":3456,"byteLength":3456,"target":34962,"byteStride":12}],"buffers":[{"byteLength":6912,"uri":"data:application/octet-stream;base64,"}],"accessors":[{"bufferView":0,"componentType":5126,"count":288,"max":[2.2351999282836914,2.2351999282836914,177.12399291992188],"min":[-2.2351999282836914,-2.2351999282836914,-177.12399291992188],"type":"VEC3"},{"bufferView":1,"componentType":5126,"count":288,"max":[1,1,1],"min":[-1,-1,-1],"type":"VEC3"}],"materials":[{"pbrMetallicRoughness":{"baseColorFactor":[0.6104955708001716,0.6104955708001716,0.6104955708001716,0.4],"metallicFactor":0.5,"roughnessFactor":0.5},"alphaMode":"BLEND"}],"meshes":[{"primitives":[{"mode":4,"attributes":{"POSITION":0,"NORMAL":1},"material":0}]}]}