{"asset":{"version":"2.0","generator":"THREE.GLTFExporter"},"scenes":[{"name":"DetectorChamber > Chamber","nodes":[10],"extras":{"visible":true}}],"scene":0,"nodes":[{"name":"logicOPPPSupportCrossBar_pv0x2276968","mesh":0},{"matrix":[2.220446049250313e-16,0,-1,0,0,1,0,0,1,0,2.220446049250313e-16,0,-7.2,-0.5,5,1],"children":[0]},{"name":"logicOPPPSupportCrossBar_pv0x22769a0","mesh":0},{"matrix":[2.220446049250313e-16,1.224646799147353e-16,1,0,1.232595164407831e-32,-1,1.224646799147353e-16,0,1,-1.232595164407831e-32,-2.220446049250313e-16,0,7.2,-0.5,5,1],"children":[2]},{"name":"logicOPPPSupportCrossBar_pv0x22769d8","mesh":0},{"matrix":[2.220446049250313e-16,0,-1,0,0,1,0,0,1,0,2.220446049250313e-16,0,7.2,-0.5,-5,1],"children":[4]},{"name":"logicOPPPSupportCrossBar_pv0x2276a10","mesh":0},{"matrix":[2.220446049250313e-16,1.224646799147353e-16,1,0,1.232595164407831e-32,-1,1.224646799147353e-16,0,1,-1.232595164407831e-32,-2.220446049250313e-16,0,-7.2,-0.5,-5,1],"children":[6]},{"matrix":[2.220446049250313e-16,1,0,0,-1,2.220446049250313e-16,0,0,0,0,1,0,5.75,21.07,1672.1415000000002,1],"children":[1,3,5,7]},{"children":[8]},{"children":[9]}],"bufferViews":[{"buffer":0,"byteOffset":0,"byteLength":432,"target":34962,"byteStride":12},{"buffer":0,"byteOffset":432,"byteLength":432,"target":34962,"byteStride":12}],"buffers":[{"byteLength":864,"uri":"data:application/octet-stream;base64,"}],"accessors":[{"bufferView":0,"componentType":5126,"count":36,"max":[5,0.5,5.699999809265137],"min":[-5,-0.5,-5.699999809265137],"type":"VEC3"},{"bufferView":1,"componentType":5126,"count":36,"max":[0.8521712422370911,1,1],"min":[-0.8521712422370911,-1,-1],"type":"VEC3"}],"materials":[{"pbrMetallicRoughness":{"baseColorFactor":[0.3231432091022285,0.3231432091022285,0.6104955708001716,1],"metallicFactor":0.5,"roughnessFactor":0.5}}],"meshes":[{"primitives":[{"mode":4,"attributes":{"POSITION":0,"NORMAL":1},"material":0}]}]}