{"asset":{"version":"2.0","generator":"THREE.GLTFExporter"},"scenes":[{"name":"DetectorChamber > Chamber","nodes":[4],"extras":{"visible":true}}],"scene":0,"nodes":[{"name":"logicOPPPSupportHolder_pv0x2276a80","mesh":0},{"matrix":[1,0,0,0,0,1,0,0,0,0,1,0,-6.95,-11.5,0,1],"children":[0]},{"matrix":[2.220446049250313e-16,1,0,0,-1,2.220446049250313e-16,0,0,0,0,1,0,5.75,21.07,1672.1415000000002,1],"children":[1]},{"children":[2]},{"children":[3]}],"bufferViews":[{"buffer":0,"byteOffset":0,"byteLength":1296,"target":34962,"byteStride":12},{"buffer":0,"byteOffset":1296,"byteLength":1296,"target":34962,"byteStride":12}],"buffers":[{"byteLength":2592,"uri":"data:application/octet-stream;base64,"}],"accessors":[{"bufferView":0,"componentType":5126,"count":108,"max":[8.449999809265137,8,3.5],"min":[-8.449999809265137,-8,-3.5],"type":"VEC3"},{"bufferView":1,"componentType":5126,"count":108,"max":[1,1,1],"min":[-1,-1,-1],"type":"VEC3"}],"materials":[{"pbrMetallicRoughness":{"baseColorFactor":[0.6104955708001716,0.6104955708001716,1,1],"metallicFactor":0.5,"roughnessFactor":0.5}}],"meshes":[{"primitives":[{"mode":4,"attributes":{"POSITION":0,"NORMAL":1},"material":0}]}]}