{"asset":{"version":"2.0","generator":"THREE.GLTFExporter"},"scenes":[{"name":"DetectorChamber > Chamber","nodes":[4],"extras":{"visible":true}}],"scene":0,"nodes":[{"name":"logicOPPPDetSupportTableTop_pv0x2276ab8","mesh":0},{"matrix":[2.220446049250313e-16,-1,0,0,1,2.220446049250313e-16,0,0,0,0,1,0,-16.400000000000002,-15.5,0,1],"children":[0]},{"matrix":[2.220446049250313e-16,1,0,0,-1,2.220446049250313e-16,0,0,0,0,1,0,5.75,21.07,1672.1415000000002,1],"children":[1]},{"children":[2]},{"children":[3]}],"bufferViews":[{"buffer":0,"byteOffset":0,"byteLength":432,"target":34962,"byteStride":12},{"buffer":0,"byteOffset":432,"byteLength":432,"target":34962,"byteStride":12}],"buffers":[{"byteLength":864,"uri":"data:application/octet-stream;base64,"}],"accessors":[{"bufferView":0,"componentType":5126,"count":36,"max":[12,1,10.5],"min":[-12,-1,-10.5],"type":"VEC3"},{"bufferView":1,"componentType":5126,"count":36,"max":[1,1,1],"min":[-1,-1,-1],"type":"VEC3"}],"materials":[{"pbrMetallicRoughness":{"baseColorFactor":[0.6104955708001716,0.6104955708001716,1,1],"metallicFactor":0.5,"roughnessFactor":0.5}}],"meshes":[{"primitives":[{"mode":4,"attributes":{"POSITION":0,"NORMAL":1},"material":0}]}]}