{"asset":{"version":"2.0","generator":"THREE.GLTFExporter"},"scenes":[{"name":"DetectorChamber > Chamber","nodes":[5],"extras":{"visible":true}}],"scene":0,"nodes":[{"name":"PDCEDCBPipe0x223b080","mesh":0},{"matrix":[1,0,0,0,0,1,0,0,0,0,1,0,0,-12.615000000000002,1703.7044999999998,1],"children":[0]},{"name":"PDCEDCBPipeVac0x223b350","mesh":1},{"matrix":[1,0,0,0,0,1,0,0,0,0,1,0,0,-12.615000000000002,1703.7044999999998,1],"children":[2]},{"children":[1,3]},{"children":[4]}],"bufferViews":[{"buffer":0,"byteOffset":0,"byteLength":6912,"target":34962,"byteStride":12},{"buffer":0,"byteOffset":6912,"byteLength":6912,"target":34962,"byteStride":12},{"buffer":0,"byteOffset":13824,"byteLength":3456,"target":34962,"byteStride":12},{"buffer":0,"byteOffset":17280,"byteLength":3456,"target":34962,"byteStride":12}],"buffers":[{"byteLength":20736,"uri":"data:application/octet-stream;base64,"}],"accessors":[{"bufferView":0,"componentType":5126,"count":576,"max":[17.780000686645508,17.780000686645508,48.704498291015625],"min":[-17.780000686645508,-17.780000686645508,-48.704498291015625],"type":"VEC3"},{"bufferView":1,"componentType":5126,"count":576,"max":[1,1,1],"min":[-1,-1,-1],"type":"VEC3"},{"bufferView":2,"componentType":5126,"count":288,"max":[17.30500030517578,17.30500030517578,48.704498291015625],"min":[-17.30500030517578,-17.30500030517578,-48.704498291015625],"type":"VEC3"},{"bufferView":3,"componentType":5126,"count":288,"max":[1,1,1],"min":[-1,-1,-1],"type":"VEC3"}],"materials":[{"pbrMetallicRoughness":{"baseColorFactor":[0.3231432091022285,0.3231432091022285,0.6104955708001716,1],"metallicFactor":0.5,"roughnessFactor":0.5}},{"pbrMetallicRoughness":{"baseColorFactor":[0.6104955708001716,0.6104955708001716,0.6104955708001716,0.4],"metallicFactor":0.5,"roughnessFactor":0.5},"alphaMode":"BLEND"}],"meshes":[{"primitives":[{"mode":4,"attributes":{"POSITION":0,"NORMAL":1},"material":0}]},{"primitives":[{"mode":4,"attributes":{"POSITION":2,"NORMAL":3},"material":1}]}]}