{"asset":{"version":"2.0","generator":"THREE.GLTFExporter"},"scenes":[{"name":"DetectorChamber > Chamber","nodes":[6],"extras":{"visible":true}}],"scene":0,"nodes":[{"name":"logicPDCUpFlexBPipeFlange_pv0x22406d0","mesh":0},{"matrix":[1,0,0,0,0,1,0,0,0,0,1,0,0,0,-12.3065,1],"children":[0]},{"name":"logicPDCUpFlexBPipeFlange_pv0x2240708","mesh":0},{"matrix":[1,0,0,0,0,1,0,0,0,0,1,0,0,0,12.3065,1],"children":[2]},{"matrix":[1,0,0,0,0,1,0,0,0,0,1,0,0,-1.6,1419.0205,1],"children":[1,3]},{"children":[4]},{"children":[5]}],"bufferViews":[{"buffer":0,"byteOffset":0,"byteLength":6912,"target":34962,"byteStride":12},{"buffer":0,"byteOffset":6912,"byteLength":6912,"target":34962,"byteStride":12}],"buffers":[{"byteLength":13824,"uri":"data:application/octet-stream;base64,"}],"accessors":[{"bufferView":0,"componentType":5126,"count":576,"max":[15.239999771118164,15.239999771118164,1.3459999561309814],"min":[-15.239999771118164,-15.239999771118164,-1.3459999561309814],"type":"VEC3"},{"bufferView":1,"componentType":5126,"count":576,"max":[1,1,1],"min":[-1,-1,-1],"type":"VEC3"}],"materials":[{"pbrMetallicRoughness":{"baseColorFactor":[0.3231432091022285,0.3231432091022285,0.6104955708001716,1],"metallicFactor":0.5,"roughnessFactor":0.5}}],"meshes":[{"primitives":[{"mode":4,"attributes":{"POSITION":0,"NORMAL":1},"material":0}]}]}