{"asset":{"version":"2.0","generator":"THREE.GLTFExporter"},"scenes":[{"name":"DetectorChamber > Chamber","nodes":[10],"extras":{"visible":true}}],"scene":0,"nodes":[{"name":"logicQMagSupportTop_pv0x2230528","mesh":0},{"matrix":[1,0,0,0,0,1,0,0,0,0,1,0,0,-32.5755,50.952400000000004,1],"children":[0]},{"matrix":[1,0,0,0,0,1,0,0,0,0,1,0,0,0,365.04760000000005,1],"children":[1]},{"name":"logicQMagSupportTop_pv0x2230528","mesh":0},{"matrix":[1,0,0,0,0,1,0,0,0,0,1,0,0,-32.5755,50.952400000000004,1],"children":[3]},{"matrix":[1,0,0,0,0,1,0,0,0,0,1,0,0,0,588.0476,1],"children":[4]},{"name":"logicQMagSupportTop_pv0x2230528","mesh":0},{"matrix":[1,0,0,0,0,1,0,0,0,0,1,0,0,-32.5755,50.952400000000004,1],"children":[6]},{"matrix":[1,0,0,0,0,1,0,0,0,0,1,0,0,0,810.0476,1],"children":[7]},{"children":[2,5,8]},{"children":[9]}],"bufferViews":[{"buffer":0,"byteOffset":0,"byteLength":432,"target":34962,"byteStride":12},{"buffer":0,"byteOffset":432,"byteLength":432,"target":34962,"byteStride":12}],"buffers":[{"byteLength":864,"uri":"data:application/octet-stream;base64,"}],"accessors":[{"bufferView":0,"componentType":5126,"count":36,"max":[25.145999908447266,1.6891000270843506,50.95240020751953],"min":[-25.145999908447266,-1.6891000270843506,-50.95240020751953],"type":"VEC3"},{"bufferView":1,"componentType":5126,"count":36,"max":[1,1,1],"min":[-1,-1,-1],"type":"VEC3"}],"materials":[{"pbrMetallicRoughness":{"baseColorFactor":[0.3231432091022285,0.3231432091022285,0.6104955708001716,1],"metallicFactor":0.5,"roughnessFactor":0.5}}],"meshes":[{"primitives":[{"mode":4,"attributes":{"POSITION":0,"NORMAL":1},"material":0}]}]}