{"asset":{"version":"2.0","generator":"THREE.GLTFExporter"},"scenes":[{"name":"DetectorChamber > Chamber","nodes":[10],"extras":{"visible":true}}],"scene":0,"nodes":[{"name":"logicQMag2Leg_pv0x2238168","mesh":0},{"matrix":[1,0,0,0,0,2.220446049250313e-16,-1,0,0,1,2.220446049250313e-16,0,-55.61330000000001,-65.8422,-86.5652,1],"children":[0]},{"name":"logicQMag2Leg_pv0x22381a0","mesh":0},{"matrix":[1,0,0,0,0,2.220446049250313e-16,-1,0,0,1,2.220446049250313e-16,0,-55.61330000000001,-65.8422,86.5652,1],"children":[2]},{"name":"logicQMag2Leg_pv0x22381d8","mesh":0},{"matrix":[1,0,0,0,0,2.220446049250313e-16,-1,0,0,1,2.220446049250313e-16,0,55.61330000000001,-65.8422,-86.5652,1],"children":[4]},{"name":"logicQMag2Leg_pv0x2238210","mesh":0},{"matrix":[1,0,0,0,0,2.220446049250313e-16,-1,0,0,1,2.220446049250313e-16,0,55.61330000000001,-65.8422,86.5652,1],"children":[6]},{"matrix":[1,0,0,0,0,1,0,0,0,0,1,0,0,-39.7256,861,1],"children":[1,3,5,7]},{"children":[8]},{"children":[9]}],"bufferViews":[{"buffer":0,"byteOffset":0,"byteLength":432,"target":34962,"byteStride":12},{"buffer":0,"byteOffset":432,"byteLength":432,"target":34962,"byteStride":12}],"buffers":[{"byteLength":864,"uri":"data:application/octet-stream;base64,"}],"accessors":[{"bufferView":0,"componentType":5126,"count":36,"max":[7.72160005569458,7.72160005569458,62.03219985961914],"min":[-7.72160005569458,-7.72160005569458,-62.03219985961914],"type":"VEC3"},{"bufferView":1,"componentType":5126,"count":36,"max":[1,1,1],"min":[-1,-1,-1],"type":"VEC3"}],"materials":[{"pbrMetallicRoughness":{"baseColorFactor":[0.3231432091022285,0.3231432091022285,0.6104955708001716,1],"metallicFactor":0.5,"roughnessFactor":0.5}}],"meshes":[{"primitives":[{"mode":4,"attributes":{"POSITION":0,"NORMAL":1},"material":0}]}]}