{"asset":{"version":"2.0","generator":"THREE.GLTFExporter"},"scenes":[{"name":"DetectorChamber > Chamber","nodes":[22],"extras":{"visible":true}}],"scene":0,"nodes":[{"name":"logicQMagSupportLeg_pv0x2230560","mesh":0},{"matrix":[1,0,0,0,0,2.220446049250313e-16,-1,0,0,1,2.220446049250313e-16,0,-9.906,-36.9951,15.240000000000002,1],"children":[0]},{"name":"logicQMagSupportLeg_pv0x2230598","mesh":0},{"matrix":[1,0,0,0,0,2.220446049250313e-16,-1,0,0,1,2.220446049250313e-16,0,-9.906,-36.9951,86.66480000000001,1],"children":[2]},{"name":"logicQMagSupportLeg_pv0x22305d0","mesh":0},{"matrix":[1,0,0,0,0,2.220446049250313e-16,-1,0,0,1,2.220446049250313e-16,0,9.906,-36.9951,50.952400000000004,1],"children":[4]},{"matrix":[1,0,0,0,0,1,0,0,0,0,1,0,0,0,365.04760000000005,1],"children":[1,3,5]},{"name":"logicQMagSupportLeg_pv0x2230560","mesh":0},{"matrix":[1,0,0,0,0,2.220446049250313e-16,-1,0,0,1,2.220446049250313e-16,0,-9.906,-36.9951,15.240000000000002,1],"children":[7]},{"name":"logicQMagSupportLeg_pv0x2230598","mesh":0},{"matrix":[1,0,0,0,0,2.220446049250313e-16,-1,0,0,1,2.220446049250313e-16,0,-9.906,-36.9951,86.66480000000001,1],"children":[9]},{"name":"logicQMagSupportLeg_pv0x22305d0","mesh":0},{"matrix":[1,0,0,0,0,2.220446049250313e-16,-1,0,0,1,2.220446049250313e-16,0,9.906,-36.9951,50.952400000000004,1],"children":[11]},{"matrix":[1,0,0,0,0,1,0,0,0,0,1,0,0,0,588.0476,1],"children":[8,10,12]},{"name":"logicQMagSupportLeg_pv0x2230560","mesh":0},{"matrix":[1,0,0,0,0,2.220446049250313e-16,-1,0,0,1,2.220446049250313e-16,0,-9.906,-36.9951,15.240000000000002,1],"children":[14]},{"name":"logicQMagSupportLeg_pv0x2230598","mesh":0},{"matrix":[1,0,0,0,0,2.220446049250313e-16,-1,0,0,1,2.220446049250313e-16,0,-9.906,-36.9951,86.66480000000001,1],"children":[16]},{"name":"logicQMagSupportLeg_pv0x22305d0","mesh":0},{"matrix":[1,0,0,0,0,2.220446049250313e-16,-1,0,0,1,2.220446049250313e-16,0,9.906,-36.9951,50.952400000000004,1],"children":[18]},{"matrix":[1,0,0,0,0,1,0,0,0,0,1,0,0,0,810.0476,1],"children":[15,17,19]},{"children":[6,13,20]},{"children":[21]}],"bufferViews":[{"buffer":0,"byteOffset":0,"byteLength":432,"target":34962,"byteStride":12},{"buffer":0,"byteOffset":432,"byteLength":432,"target":34962,"byteStride":12}],"buffers":[{"byteLength":864,"uri":"data:application/octet-stream;base64,"}],"accessors":[{"bufferView":0,"componentType":5126,"count":36,"max":[5.079999923706055,5.079999923706055,2.7304999828338623],"min":[-5.079999923706055,-5.079999923706055,-2.7304999828338623],"type":"VEC3"},{"bufferView":1,"componentType":5126,"count":36,"max":[1,1,1],"min":[-1,-1,-1],"type":"VEC3"}],"materials":[{"pbrMetallicRoughness":{"baseColorFactor":[0.3231432091022285,0.3231432091022285,0.6104955708001716,1],"metallicFactor":0.5,"roughnessFactor":0.5}}],"meshes":[{"primitives":[{"mode":4,"attributes":{"POSITION":0,"NORMAL":1},"material":0}]}]}