{"asset":{"version":"2.0","generator":"THREE.GLTFExporter"},"scenes":[{"name":"DetectorChamber > Chamber","nodes":[8],"extras":{"visible":true}}],"scene":0,"nodes":[{"name":"QMag1Field0x22365f0","mesh":0},{"name":"logicQMagFieldPipeQMag1Pipe_pv0x2234be0","mesh":1},{"children":[1]},{"name":"logicQMagFieldPipeQMag1Vac_pv0x2234c18","mesh":2},{"children":[3]},{"children":[2,4]},{"matrix":[1,0,0,0,0,1,0,0,0,0,1,0,0,0,639,1],"children":[0,5]},{"children":[6]},{"children":[7]}],"bufferViews":[{"buffer":0,"byteOffset":0,"byteLength":3456,"target":34962,"byteStride":12},{"buffer":0,"byteOffset":3456,"byteLength":3456,"target":34962,"byteStride":12},{"buffer":0,"byteOffset":6912,"byteLength":6912,"target":34962,"byteStride":12},{"buffer":0,"byteOffset":13824,"byteLength":6912,"target":34962,"byteStride":12},{"buffer":0,"byteOffset":20736,"byteLength":3456,"target":34962,"byteStride":12},{"buffer":0,"byteOffset":24192,"byteLength":3456,"target":34962,"byteStride":12}],"buffers":[{"byteLength":27648,"uri":"data:application/octet-stream;base64,"}],"accessors":[{"bufferView":0,"componentType":5126,"count":288,"max":[3.2328922748565674,3.2328922748565674,48.66640090942383],"min":[-3.2328922748565674,-3.2328922748565674,-48.66640090942383],"type":"VEC3"},{"bufferView":1,"componentType":5126,"count":288,"max":[1,1,1],"min":[-1,-1,-1],"type":"VEC3"},{"bufferView":2,"componentType":5126,"count":576,"max":[2.5527000427246094,2.5527000427246094,48.66640090942383],"min":[-2.5527000427246094,-2.5527000427246094,-48.66640090942383],"type":"VEC3"},{"bufferView":3,"componentType":5126,"count":576,"max":[1,1,1],"min":[-1,-1,-1],"type":"VEC3"},{"bufferView":4,"componentType":5126,"count":288,"max":[2.2351999282836914,2.2351999282836914,48.66640090942383],"min":[-2.2351999282836914,-2.2351999282836914,-48.66640090942383],"type":"VEC3"},{"bufferView":5,"componentType":5126,"count":288,"max":[1,1,1],"min":[-1,-1,-1],"type":"VEC3"}],"materials":[{"pbrMetallicRoughness":{"baseColorFactor":[0.13286832154414627,0.13286832154414627,1,0.4],"metallicFactor":0.5,"roughnessFactor":0.5},"alphaMode":"BLEND"},{"pbrMetallicRoughness":{"baseColorFactor":[0.3231432091022285,0.3231432091022285,0.6104955708001716,1],"metallicFactor":0.5,"roughnessFactor":0.5}},{"pbrMetallicRoughness":{"baseColorFactor":[0.6104955708001716,0.6104955708001716,0.6104955708001716,0.4],"metallicFactor":0.5,"roughnessFactor":0.5},"alphaMode":"BLEND"}],"meshes":[{"primitives":[{"mode":4,"attributes":{"POSITION":0,"NORMAL":1},"material":0}]},{"primitives":[{"mode":4,"attributes":{"POSITION":2,"NORMAL":3},"material":1}]},{"primitives":[{"mode":4,"attributes":{"POSITION":4,"NORMAL":5},"material":2}]}]}